# xmcd CD database file
#
# Track frame offsets:
#	150
#	15677
#	34476
#	48566
#	62730
#	81308
#	99680
#	113991
#	127409
#	148212
#	161699
#	173037
#	187900
#	199480
#	215373
#
# Disc length: 3018 seconds
#
# Revision: 0
# Processed by: cddbd v1.5.2PL0 Copyright (c) Steve Scherf et al.
# Submitted via: CDex 1.51
#
DISCID=e90bc80f
DTITLE=La Arrolladora Banda El Limón - Antología Musical
DYEAR=2012
DGENRE=Banda
TTITLE0=No la voy a engañar
TTITLE1=Sobre mis pies
TTITLE2=No me vengas a decir
TTITLE3=Niña de mi corazón
TTITLE4=Si tu amor no vuelve
TTITLE5=La otra cara de la moneda
TTITLE6=Ya no te buscaré
TTITLE7=Complaciente en la cama
TTITLE8=No creo que tu
TTITLE9=Sobreviviré
TTITLE10=Media naranja
TTITLE11=Y ahora que
TTITLE12=La culpable
TTITLE13=Como los gatos
TTITLE14=La suata
EXTD=YEAR: 2012
EXTT0=
EXTT1=
EXTT2=
EXTT3=
EXTT4=
EXTT5=
EXTT6=
EXTT7=
EXTT8=
EXTT9=
EXTT10=
EXTT11=
EXTT12=
EXTT13=
EXTT14=
PLAYORDER=
